<svg width="35" height="35" viewBox="0 0 35 35" fill="none" xmlns="http://www.w3.org/2000/svg">
<path d="M3.28125 4.375C1.46973 4.375 0 5.84473 0 7.65625C0 8.68848 0.485352 9.65918 1.3125 10.2812L16.1875 21.4375C16.9668 22.0186 18.0332 22.0186 18.8125 21.4375L33.6875 10.2812C34.5146 9.65918 35 8.68848 35 7.65625C35 5.84473 33.5303 4.375 31.7188 4.375H3.28125ZM0 12.0312V26.25C0 28.6631 1.96191 30.625 4.375 30.625H30.625C33.0381 30.625 35 28.6631 35 26.25V12.0312L20.125 23.1875C18.5664 24.3564 16.4336 24.3564 14.875 23.1875L0 12.0312Z" fill="#5C71A5"/>
</svg>
