<svg width="30" height="35" viewBox="0 0 30 35" fill="none" xmlns="http://www.w3.org/2000/svg">
<path d="M27.8571 2.1875H2.13616C0.957589 2.1875 0 3.17871 0 4.39551V30.6045C0 31.8213 0.957589 32.8125 2.13616 32.8125H27.8571C29.0357 32.8125 30 31.8213 30 30.6045V4.39551C30 3.17871 29.0357 2.1875 27.8571 2.1875ZM9.06696 28.4375H4.62054V13.8223H9.07366V28.4375H9.06696ZM6.84375 11.8262C5.41741 11.8262 4.26562 10.6436 4.26562 9.19434C4.26562 7.74512 5.41741 6.5625 6.84375 6.5625C8.26339 6.5625 9.42187 7.74512 9.42187 9.19434C9.42187 10.6504 8.27009 11.8262 6.84375 11.8262ZM25.7344 28.4375H21.2879V21.3281C21.2879 19.6328 21.2545 17.4521 18.9777 17.4521C16.6607 17.4521 16.3058 19.2979 16.3058 21.2051V28.4375H11.8594V13.8223H16.125V15.8184H16.1853C16.7812 14.6699 18.2344 13.46 20.3973 13.46C24.8973 13.46 25.7344 16.4883 25.7344 20.4258V28.4375Z" fill="#5C71A5"/>
</svg>
