<svg width="30" height="34" viewBox="0 0 30 34" fill="none" xmlns="http://www.w3.org/2000/svg">
<path d="M30 6.375C30 4.03086 28.0781 2.125 25.7143 2.125H4.28571C1.92187 2.125 0 4.03086 0 6.375V27.625C0 29.9691 1.92187 31.875 4.28571 31.875H25.7143C28.0781 31.875 30 29.9691 30 27.625V6.375ZM17.7991 27.0738C17.7991 26.9543 17.7991 26.6754 17.8058 26.3035C17.8125 25.5465 17.8125 24.391 17.8125 23.4016C17.8125 22.3656 17.4643 21.7082 17.0558 21.3629C19.5335 21.0906 22.1451 20.752 22.1451 16.5086C22.1451 15.3 21.7098 14.6957 21 13.9188C21.1138 13.6332 21.4955 12.4578 20.8862 10.9305C19.9554 10.6449 17.8259 12.1191 17.8259 12.1191C16.942 11.8734 15.9844 11.7473 15.0402 11.7473C14.096 11.7473 13.1384 11.8734 12.2545 12.1191C12.2545 12.1191 10.125 10.6449 9.1942 10.9305C8.58482 12.4512 8.95982 13.6266 9.08036 13.9188C8.37054 14.6957 8.03571 15.3 8.03571 16.5086C8.03571 20.732 10.5335 21.0906 13.0112 21.3629C12.6897 21.6484 12.4018 22.1398 12.3013 22.8438C11.6652 23.1293 10.0379 23.6207 9.06696 21.9207C8.45759 20.8715 7.35937 20.7852 7.35937 20.7852C6.27455 20.7719 7.28571 21.4625 7.28571 21.4625C8.00893 21.7945 8.51786 23.0695 8.51786 23.0695C9.16741 25.0418 12.2746 24.3777 12.2746 24.3777C12.2746 24.9754 12.2812 25.8188 12.2812 26.4098C12.2812 26.7285 12.2879 26.9809 12.2879 27.0738C12.2879 27.3594 12.0871 27.7047 11.5179 27.6051C7.09821 26.1375 4.00446 21.9672 4.00446 17.093C4.00446 10.9969 8.70536 6.36836 14.8527 6.36836C21 6.36836 25.9821 10.9969 25.9821 17.093C25.9888 21.9672 22.9888 26.1441 18.5692 27.6051C18.0067 27.7047 17.7991 27.3594 17.7991 27.0738ZM11.7388 23.4348C11.7254 23.3352 11.8125 23.2488 11.9397 23.2223C12.067 23.209 12.1875 23.2621 12.2009 23.3484C12.221 23.4348 12.1339 23.5211 12 23.5477C11.8728 23.5742 11.7522 23.5211 11.7388 23.4348ZM11.1295 23.6473C10.9821 23.6605 10.8817 23.5875 10.8817 23.4879C10.8817 23.4016 10.9821 23.3285 11.1161 23.3285C11.2433 23.3152 11.3638 23.3883 11.3638 23.4879C11.3638 23.5742 11.2634 23.6473 11.1295 23.6473ZM10.1719 23.5012C10.0446 23.4746 9.95759 23.375 9.98438 23.2887C10.0112 23.2023 10.1451 23.1625 10.2589 23.1891C10.3929 23.2289 10.4799 23.3285 10.4464 23.4148C10.4196 23.5012 10.2857 23.541 10.1719 23.5012ZM9.33482 23.0164C9.23437 22.9301 9.20759 22.8039 9.27455 22.7441C9.33482 22.6711 9.46205 22.6844 9.5625 22.784C9.64955 22.8703 9.68304 23.0031 9.62277 23.0563C9.5625 23.1293 9.43527 23.116 9.33482 23.0164ZM8.76562 22.3523C8.69196 22.2527 8.69196 22.1398 8.76562 22.0934C8.83929 22.0336 8.95313 22.0801 9.01339 22.1797C9.08705 22.2793 9.08705 22.3988 9.01339 22.452C8.95313 22.4918 8.83929 22.452 8.76562 22.3523ZM8.34375 21.768C8.27009 21.6816 8.2567 21.582 8.31696 21.5355C8.37723 21.4758 8.47768 21.509 8.55134 21.5754C8.625 21.6617 8.63839 21.7613 8.57813 21.8078C8.51786 21.8676 8.41741 21.8344 8.34375 21.768ZM7.94196 21.343C7.85491 21.3031 7.81473 21.2301 7.84152 21.1703C7.8683 21.1305 7.94196 21.1105 8.02902 21.1437C8.11607 21.1902 8.15625 21.2633 8.12946 21.3164C8.10268 21.3762 8.01562 21.3895 7.94196 21.343Z" fill="#5C71A5"/>
</svg>
